<mxfile host="Electron" modified="2024-03-03T07:16:10.693Z" agent="Mozilla/5.0 (Windows NT 10.0; Win64; x64) AppleWebKit/537.36 (KHTML, like Gecko) draw.io/23.1.5 Chrome/120.0.6099.109 Electron/28.1.0 Safari/537.36" etag="Btq7URAZLAaSgL6zLpQ9" version="23.1.5" type="device">
  <diagram name="페이지-1" id="C_80ixQkP3eMDvwuebmH">
    <mxGraphModel dx="605" dy="692" grid="1" gridSize="10" guides="1" tooltips="1" connect="1" arrows="1" fold="1" page="1" pageScale="1" pageWidth="827" pageHeight="1169" math="0" shadow="0">
      <root>
        <mxCell id="0" />
        <mxCell id="1" parent="0" />
        <mxCell id="0SMTt5g0StI9omXzJdun-1" value="`" style="whiteSpace=wrap;html=1;shape=swimlane;fontStyle=1;startSize=23;" vertex="1" parent="1">
          <mxGeometry x="100" y="440" width="570" height="390" as="geometry" />
        </mxCell>
        <mxCell id="0SMTt5g0StI9omXzJdun-6" value="serializer 크기가 0인가?" style="rounded=0;whiteSpace=wrap;html=1;" vertex="1" parent="0SMTt5g0StI9omXzJdun-1">
          <mxGeometry x="31" y="85" width="169" height="60" as="geometry" />
        </mxCell>
        <mxCell id="0SMTt5g0StI9omXzJdun-8" value="그냥 추가, parents는 -1로" style="whiteSpace=wrap;html=1;" vertex="1" parent="0SMTt5g0StI9omXzJdun-1">
          <mxGeometry x="40" y="190" width="120" height="60" as="geometry" />
        </mxCell>
        <mxCell id="0SMTt5g0StI9omXzJdun-10" value="이진탐색으로 upper bound 탐색" style="swimlane;whiteSpace=wrap;html=1;" vertex="1" parent="0SMTt5g0StI9omXzJdun-1">
          <mxGeometry x="230" y="60" width="330" height="310" as="geometry" />
        </mxCell>
        <mxCell id="0SMTt5g0StI9omXzJdun-12" value="맨 오른쪽인가" style="rhombus;whiteSpace=wrap;html=1;" vertex="1" parent="0SMTt5g0StI9omXzJdun-10">
          <mxGeometry x="30" y="60" width="80" height="80" as="geometry" />
        </mxCell>
        <mxCell id="0SMTt5g0StI9omXzJdun-13" value="오른쪽에 추가" style="rounded=0;whiteSpace=wrap;html=1;" vertex="1" parent="0SMTt5g0StI9omXzJdun-10">
          <mxGeometry x="30" y="160" width="120" height="60" as="geometry" />
        </mxCell>
        <mxCell id="0SMTt5g0StI9omXzJdun-14" value="같은 값일경우가 아니면 serializer을 바꿈" style="rounded=0;whiteSpace=wrap;html=1;" vertex="1" parent="0SMTt5g0StI9omXzJdun-10">
          <mxGeometry x="150" y="70" width="120" height="60" as="geometry" />
        </mxCell>
        <mxCell id="0SMTt5g0StI9omXzJdun-15" value="parents를 왼쪽으로" style="rounded=0;whiteSpace=wrap;html=1;" vertex="1" parent="0SMTt5g0StI9omXzJdun-10">
          <mxGeometry x="120" y="240" width="120" height="60" as="geometry" />
        </mxCell>
        <mxCell id="0SMTt5g0StI9omXzJdun-2" value="int parents[100001]" style="rounded=0;whiteSpace=wrap;html=1;" vertex="1" parent="1">
          <mxGeometry x="100" y="280" width="240" height="60" as="geometry" />
        </mxCell>
        <mxCell id="0SMTt5g0StI9omXzJdun-3" value="int serializer[100001]" style="rounded=0;whiteSpace=wrap;html=1;" vertex="1" parent="1">
          <mxGeometry x="100" y="350" width="240" height="60" as="geometry" />
        </mxCell>
        <mxCell id="0SMTt5g0StI9omXzJdun-4" value="&lt;h1&gt;입력이 정렬되어 받는다고 가정&lt;/h1&gt;&lt;div&gt;&lt;br&gt;&lt;/div&gt;&lt;div&gt;&lt;br&gt;&lt;/div&gt;" style="text;html=1;spacing=5;spacingTop=-20;whiteSpace=wrap;overflow=hidden;rounded=0;" vertex="1" parent="1">
          <mxGeometry x="100" y="140" width="350" height="120" as="geometry" />
        </mxCell>
        <mxCell id="0SMTt5g0StI9omXzJdun-5" value="vector&amp;lt;int&amp;gt; input {}" style="rounded=0;whiteSpace=wrap;html=1;" vertex="1" parent="1">
          <mxGeometry x="100" y="40" width="240" height="60" as="geometry" />
        </mxCell>
        <mxCell id="0SMTt5g0StI9omXzJdun-16" value="맨 마지막 아이에 대해서 반복" style="swimlane;whiteSpace=wrap;html=1;" vertex="1" parent="1">
          <mxGeometry x="120" y="880" width="410" height="210" as="geometry" />
        </mxCell>
        <mxCell id="0SMTt5g0StI9omXzJdun-17" value="부모로 이동하고 자신과 부모 사이에 칸들 내림차순으로 추가" style="rounded=0;whiteSpace=wrap;html=1;" vertex="1" parent="0SMTt5g0StI9omXzJdun-16">
          <mxGeometry x="36" y="60" width="264" height="60" as="geometry" />
        </mxCell>
      </root>
    </mxGraphModel>
  </diagram>
</mxfile>
